<svg xmlns="http://www.w3.org/2000/svg" width="32" height="32" viewBox="0 0 24 24"><path fill="#4c4a4a" d="M9 8h6V6q0-1.25-.875-2.125T12 3q-1.25 0-2.125.875T9 6zm3.25 14H6q-.825 0-1.412-.587T4 20V10q0-.825.588-1.412T6 8h1V6q0-2.075 1.463-3.537T12 1q2.075 0 3.538 1.463T17 6v2h1q.825 0 1.413.588T20 10v1.3q-.5-.175-1-.238T18 11q-2.925 0-4.962 2.038T11 18q0 1.075.338 2.088T12.25 22M18 23q-2.075 0-3.537-1.463T13 18q0-2.075 1.463-3.537T18 13q2.075 0 3.538 1.463T23 18q0 2.075-1.463 3.538T18 23m.5-5.2v-2.3q0-.2-.15-.35T18 15q-.2 0-.35.15t-.15.35v2.275q0 .2.075.388t.225.337l1.5 1.5q.15.15.35.15T20 20q.15-.15.15-.35T20 19.3z"/></svg>